<?xml version="1.0" encoding="UTF-8"?>
<!DOCTYPE svg PUBLIC "-//W3C//DTD SVG 1.1//EN" "http://www.w3.org/Graphics/SVG/1.1/DTD/svg11.dtd">
<!-- Creator: CorelDRAW X8 -->
<svg xmlns="http://www.w3.org/2000/svg" xml:space="preserve" width="6.35mm" height="6.35mm" version="1.1" style="shape-rendering:geometricPrecision; text-rendering:geometricPrecision; image-rendering:optimizeQuality; fill-rule:evenodd; clip-rule:evenodd"
viewBox="0 0 635 635"
 xmlns:xlink="http://www.w3.org/1999/xlink">
 <defs>
  <style type="text/css">
   <![CDATA[
    .fil0 {fill:#32306B}
    .fil1 {fill:white;fill-rule:nonzero}
   ]]>
  </style>
 </defs>
 <g id="Camada_x0020_1">
  <metadata id="CorelCorpID_0Corel-Layer"/>
  <circle class="fil0" cx="318" cy="317" r="318"/>
  <path class="fil1" d="M234 282l-36 0c-7,0 -11,5 -11,12 0,7 4,12 11,12l36 0c7,0 12,-5 12,-12 0,-7 -5,-12 -12,-12z"/>
  <path class="fil1" d="M401 294c0,7 5,12 12,12l47 0c8,0 12,-5 12,-12 0,-7 -4,-12 -12,-12l-47 0c-7,0 -12,5 -12,12z"/>
  <path class="fil1" d="M377 282l-36 0c-7,0 -12,5 -12,12 0,7 5,12 12,12l36 0c7,0 12,-5 12,-12 0,-7 -5,-12 -12,-12z"/>
  <path class="fil1" d="M306 282l-36 0c-7,0 -12,5 -12,12 0,7 5,12 12,12l36 0c7,0 12,-5 12,-12 0,-7 -5,-12 -12,-12z"/>
  <path class="fil1" d="M234 341l-36 0c-7,0 -11,5 -11,12 0,7 4,12 11,12l36 0c7,0 12,-5 12,-12 0,-7 -5,-12 -12,-12z"/>
  <path class="fil1" d="M460 341l-47 0c-7,0 -12,5 -12,12 0,7 5,12 12,12l47 0c8,0 12,-5 12,-12 0,-7 -4,-12 -12,-12z"/>
  <path class="fil1" d="M471 151l-23 0 0 -12c0,-8 -4,-12 -11,-12 -8,0 -12,4 -12,12l0 12 -48 0 0 -12c0,-8 -5,-12 -12,-12 -7,0 -12,4 -12,12l0 12 -47 0 0 -12c0,-8 -5,-12 -12,-12 -7,0 -12,4 -12,12l0 12 -48 0 0 -12c0,-8 -5,-12 -12,-12 -7,0 -12,4 -12,12l0 12 -34 0c-23,0 -49,19 -49,43l0 249c0,25 25,41 49,41l84 0c17,16 40,24 63,24 24,0 47,-9 64,-24l84 0c23,0 37,-16 37,-41l0 -249c0,-26 -14,-43 -37,-43zm-148 333c-39,0 -71,-32 -71,-71 0,-39 32,-72 71,-72 40,0 72,33 72,72 0,39 -32,71 -72,71zm161 -262l-24 0c-7,0 -12,5 -12,12 0,7 5,12 12,12l24 0 0 197c0,18 -9,18 -13,18l-65 0c6,-11 10,-23 12,-36l42 0c8,0 12,-5 12,-12 0,-7 -4,-12 -12,-12l-42 0c-6,-47 -47,-83 -95,-83 -47,0 -88,35 -94,83l-31 0c-7,0 -11,5 -11,12 0,7 4,12 11,12l31 0c2,13 6,25 12,36l-65 0c-11,0 -25,-9 -25,-18l0 -197 262 0c7,0 12,-5 12,-12 0,-7 -5,-12 -12,-12l-262 0 0 -28c0,-9 13,-20 25,-20l34 0 0 12c0,8 5,12 12,12 7,0 12,-4 12,-12l0 -12 48 0 0 12c0,8 5,12 12,12 7,0 12,-4 12,-12l0 -12 47 0 0 12c0,8 5,12 12,12 7,0 12,-4 12,-12l0 -12 48 0 0 12c0,8 4,12 12,12 7,0 11,-4 11,-12l0 -12 23 0c12,0 13,12 13,20l0 28z"/>
  <path class="fil1" d="M351 381l-39 39 -16 -15c-5,-5 -12,-5 -17,0 -4,4 -4,11 0,16l24 24c1,1 1,1 3,1l1 1c1,0 2,2 5,2 1,0 3,0 4,-2l2 -1c1,0 1,-1 2,-1l48 -48c4,-4 4,-12 0,-16 -5,-5 -12,-5 -17,0z"/>
 </g>
</svg>
