<?xml version="1.0" encoding="UTF-8"?>
<!DOCTYPE svg PUBLIC "-//W3C//DTD SVG 1.1//EN" "http://www.w3.org/Graphics/SVG/1.1/DTD/svg11.dtd">
<!-- Creator: CorelDRAW X8 -->
<svg xmlns="http://www.w3.org/2000/svg" xml:space="preserve" width="6.35mm" height="6.35mm" version="1.1" style="shape-rendering:geometricPrecision; text-rendering:geometricPrecision; image-rendering:optimizeQuality; fill-rule:evenodd; clip-rule:evenodd"
viewBox="0 0 635 635"
 xmlns:xlink="http://www.w3.org/1999/xlink">
 <defs>
  <style type="text/css">
   <![CDATA[
    .fil0 {fill:#32306B}
    .fil1 {fill:white;fill-rule:nonzero}
   ]]>
  </style>
 </defs>
 <g id="Camada_x0020_1">
  <metadata id="CorelCorpID_0Corel-Layer"/>
  <circle class="fil0" cx="318" cy="317" r="318"/>
  <g id="_2422097281392">
   <path class="fil1" d="M513 308l-39 -41 8 -56c1,-8 -5,-15 -12,-16l-56 -10 -27 -50c-3,-7 -12,-10 -19,-7l-50 25 -51 -25c-7,-3 -16,0 -19,7l-27 50 -56 10c-7,1 -13,8 -12,16l8 56 -39 41c-5,5 -5,14 0,19l39 41 -8 56c-1,8 5,15 12,16l56 10 27 50c3,7 12,10 19,7l51 -25 50 25c2,1 5,1 7,1 5,0 10,-3 12,-8l27 -50 56 -10c7,-1 13,-8 12,-16l-8 -56 39 -41c5,-5 5,-14 0,-19zm-65 45c-3,4 -4,8 -4,12l7 50 -49 8c-4,1 -8,4 -10,8l-23 44 -45 -22c-2,-1 -4,-2 -6,-2 -3,0 -5,1 -7,2l-45 22 -23 -44c-2,-4 -6,-7 -10,-8l-49 -8 7 -50c0,-4 -1,-8 -4,-12l-35 -35 35 -36c3,-4 4,-8 4,-12l-7 -50 49 -8c4,-1 8,-4 10,-8l23 -44 45 22c4,2 9,2 13,0l45 -22 23 44c2,4 6,7 10,8l49 8 -7 50c0,4 1,8 4,12l35 36 -35 35z"/>
   <path class="fil1" d="M272 307c19,0 35,-16 35,-35 0,-19 -16,-35 -35,-35 -19,0 -35,16 -35,35 0,19 16,35 35,35zm0 -47c7,0 12,6 12,12 0,7 -5,12 -12,12 -6,0 -12,-5 -12,-12 0,-6 6,-12 12,-12z"/>
   <path class="fil1" d="M387 248c-5,-4 -12,-4 -17,0l-122 122c-4,5 -4,12 0,17 3,2 6,3 9,3 2,0 5,-1 8,-3l122 -122c4,-5 4,-12 0,-17z"/>
   <path class="fil1" d="M363 328c-19,0 -35,16 -35,35 0,19 16,35 35,35 19,0 35,-16 35,-35 0,-19 -16,-35 -35,-35zm0 47c-7,0 -12,-6 -12,-12 0,-7 5,-12 12,-12 6,0 12,5 12,12 0,6 -6,12 -12,12z"/>
  </g>
 </g>
</svg>
