<?xml version="1.0" encoding="UTF-8"?>
<!DOCTYPE svg PUBLIC "-//W3C//DTD SVG 1.1//EN" "http://www.w3.org/Graphics/SVG/1.1/DTD/svg11.dtd">
<!-- Creator: CorelDRAW X8 -->
<svg xmlns="http://www.w3.org/2000/svg" xml:space="preserve" width="6.35mm" height="6.35mm" version="1.1" style="shape-rendering:geometricPrecision; text-rendering:geometricPrecision; image-rendering:optimizeQuality; fill-rule:evenodd; clip-rule:evenodd"
viewBox="0 0 635 635"
 xmlns:xlink="http://www.w3.org/1999/xlink">
 <defs>
  <style type="text/css">
   <![CDATA[
    .fil0 {fill:#32306B}
    .fil1 {fill:white;fill-rule:nonzero}
   ]]>
  </style>
 </defs>
 <g id="Camada_x0020_1">
  <metadata id="CorelCorpID_0Corel-Layer"/>
  <circle class="fil0" cx="318" cy="317" r="318"/>
  <path class="fil1" d="M411 501c-8,0 -15,-3 -22,-7l-72 -46 -71 46c-14,9 -32,9 -45,-1 -13,-10 -19,-27 -15,-42l22 -83 -66 -53c-13,-11 -18,-28 -13,-44 5,-15 19,-26 36,-27l85 -4 30 -80c6,-15 21,-26 38,-26 16,0 31,11 37,26l30 80 85 4c17,1 31,12 36,27 5,16 0,33 -13,44l-66 53 22 83c4,15 -2,32 -15,42 -7,5 -15,8 -23,8zm-93 -103c9,0 18,3 26,8l42 27c1,1 3,1 4,0 2,-1 2,-3 2,-5l-13 -47c-5,-19 2,-39 17,-51l38 -31c1,-1 2,-3 1,-5 0,-1 -2,-2 -3,-2l-50 -3c-19,-1 -36,-13 -43,-32l-18 -46c0,-1 -2,-2 -3,-2 -2,0 -4,1 -4,2l-18 46c-7,19 -24,31 -43,32l-50 3c-1,0 -3,1 -3,2 -1,2 0,4 1,5l38 31c15,12 22,32 17,51l-13 47c0,2 0,4 2,5 1,1 3,1 4,0l42 -27c8,-5 17,-8 27,-8z"/>
 </g>
</svg>
