<?xml version="1.0" encoding="UTF-8"?>
<!DOCTYPE svg PUBLIC "-//W3C//DTD SVG 1.1//EN" "http://www.w3.org/Graphics/SVG/1.1/DTD/svg11.dtd">
<!-- Creator: CorelDRAW X8 -->
<svg xmlns="http://www.w3.org/2000/svg" xml:space="preserve" width="6.35mm" height="6.35mm" version="1.1" style="shape-rendering:geometricPrecision; text-rendering:geometricPrecision; image-rendering:optimizeQuality; fill-rule:evenodd; clip-rule:evenodd"
viewBox="0 0 635 635"
 xmlns:xlink="http://www.w3.org/1999/xlink">
 <defs>
  <style type="text/css">
   <![CDATA[
    .fil0 {fill:#32306B}
    .fil1 {fill:white;fill-rule:nonzero}
   ]]>
  </style>
 </defs>
 <g id="Camada_x0020_1">
  <metadata id="CorelCorpID_0Corel-Layer"/>
  <circle class="fil0" cx="318" cy="317" r="318"/>
  <path class="fil1" d="M484 456l-35 -79c-5,-11 -18,-20 -31,-20l-40 0c14,-23 43,-74 43,-107 0,-57 -46,-104 -103,-104 -58,0 -104,47 -104,104 0,33 29,84 43,107l-40 0c-13,0 -26,9 -31,20l-35 79c-4,7 -3,16 1,22 4,7 11,11 20,11l291 0c9,0 16,-4 20,-11 4,-6 5,-15 1,-22zm-166 -253c25,0 46,21 46,47 0,26 -21,47 -46,47 -26,0 -47,-21 -47,-47 0,-26 21,-47 47,-47zm-134 254l31 -67c0,0 1,-1 2,-1l61 0c5,7 10,13 15,19 17,22 22,22 25,22 2,0 6,0 24,-22 5,-6 10,-12 15,-19l61 0c1,0 2,1 2,1l31 67 -267 0 0 0z"/>
 </g>
</svg>
