<?xml version="1.0" encoding="UTF-8"?>
<!DOCTYPE svg PUBLIC "-//W3C//DTD SVG 1.1//EN" "http://www.w3.org/Graphics/SVG/1.1/DTD/svg11.dtd">
<!-- Creator: CorelDRAW X8 -->
<svg xmlns="http://www.w3.org/2000/svg" xml:space="preserve" width="6.35mm" height="6.35mm" version="1.1" style="shape-rendering:geometricPrecision; text-rendering:geometricPrecision; image-rendering:optimizeQuality; fill-rule:evenodd; clip-rule:evenodd"
viewBox="0 0 635 635"
 xmlns:xlink="http://www.w3.org/1999/xlink">
 <defs>
  <style type="text/css">
   <![CDATA[
    .fil0 {fill:#32306B}
    .fil1 {fill:white}
   ]]>
  </style>
 </defs>
 <g id="Camada_x0020_1">
  <metadata id="CorelCorpID_0Corel-Layer"/>
  <circle class="fil0" cx="318" cy="317" r="318"/>
  <path class="fil1" d="M454 203l0 -8c0,-4 -1,-12 -5,-17 -3,-2 -6,-3 -11,-3l-25 0c0,0 -14,0 -14,12l0 14c0,14 -26,14 -26,14l-110 0c0,0 -27,-1 -27,-12l0 -18c0,0 1,-11 -14,-11l-27 0c0,0 -14,0 -14,12l0 17c0,0 1,7 -10,10 -9,3 -27,0 -36,8 -4,4 -8,11 -8,22l0 191c0,0 1,27 27,27l325 0c0,0 29,-2 29,-26l0 -193c0,0 -1,-27 -28,-27 0,0 -26,-1 -26,-12zm-41 -1c0,-8 5,-14 13,-14l0 0c8,0 14,6 14,14l0 27c0,7 -6,14 -13,14l-1 0c-8,0 -13,-7 -13,-14l0 -27zm-47 136l68 0c4,0 7,3 7,7 0,3 -3,6 -7,6l-68 0c-4,0 -7,-3 -7,-6 0,-4 3,-7 7,-7zm75 35c0,4 -4,6 -8,6l-66 0c-4,0 -7,-2 -7,-6 0,-4 3,-8 7,-8l66 0c4,0 8,4 8,8zm-198 -117c21,0 38,19 38,44 0,25 -17,45 -38,45 -21,0 -38,-20 -38,-45 0,-25 17,-44 38,-44zm-48 -55c0,-7 6,-13 13,-13l1 0c8,0 13,6 13,13l0 28c0,7 -6,14 -13,14l-1 0c-8,0 -13,-7 -13,-14l0 -28zm119 202c-3,5 -10,4 -10,4l-120 0c0,0 -8,1 -11,-4 -2,-3 -1,-8 0,-11l4 -8c0,0 8,-20 19,-31 6,-7 13,-5 18,-3 3,1 6,5 9,8 3,3 9,6 19,6l6 0c9,0 15,-3 18,-6 3,-3 6,-7 9,-8 4,-3 11,-4 17,3 10,11 18,32 18,32l4 7c1,3 2,8 0,11zm121 3l-70 0c-3,0 -6,-3 -6,-7 0,-3 3,-6 6,-6l70 0c3,0 6,3 6,6 0,4 -3,7 -6,7z"/>
 </g>
</svg>
