<?xml version="1.0" encoding="UTF-8"?>
<!DOCTYPE svg PUBLIC "-//W3C//DTD SVG 1.1//EN" "http://www.w3.org/Graphics/SVG/1.1/DTD/svg11.dtd">
<!-- Creator: CorelDRAW X8 -->
<svg xmlns="http://www.w3.org/2000/svg" xml:space="preserve" width="6.35mm" height="6.35mm" version="1.1" style="shape-rendering:geometricPrecision; text-rendering:geometricPrecision; image-rendering:optimizeQuality; fill-rule:evenodd; clip-rule:evenodd"
viewBox="0 0 635 635"
 xmlns:xlink="http://www.w3.org/1999/xlink">
 <defs>
  <style type="text/css">
   <![CDATA[
    .fil0 {fill:#32306B}
    .fil1 {fill:white;fill-rule:nonzero}
   ]]>
  </style>
 </defs>
 <g id="Camada_x0020_1">
  <metadata id="CorelCorpID_0Corel-Layer"/>
  <circle class="fil0" cx="318" cy="317" r="318"/>
  <g id="_2422071177456">
   <path class="fil1" d="M449 154l-60 0 4 19c1,2 1,5 0,7l43 0 0 302 -237 0 0 -302 43 0c-1,-2 -1,-5 0,-7l4 -19 -60 0c-7,0 -13,6 -13,13l0 328c0,7 6,13 13,13l263 0c7,0 13,-6 13,-13l0 -328c0,-7 -6,-13 -13,-13z"/>
   <path class="fil1" d="M406 247l-88 0c-7,0 -13,6 -13,13 0,7 6,13 13,13l88 0c7,0 13,-6 13,-13 0,-7 -6,-13 -13,-13z"/>
   <path class="fil1" d="M406 326l-88 0c-7,0 -13,5 -13,13 0,7 6,12 13,12l88 0c7,0 13,-5 13,-12 0,-8 -6,-13 -13,-13z"/>
   <path class="fil1" d="M221 250c-6,5 -6,13 -2,18l19 22c2,3 6,5 10,5 0,0 0,0 1,0 4,-1 8,-3 10,-6l33 -55c4,-6 2,-14 -4,-17 -6,-4 -14,-2 -17,4l-25 39 -7 -8c-5,-6 -13,-7 -18,-2z"/>
   <path class="fil1" d="M252 319c-11,0 -20,9 -20,20 0,10 9,19 20,19 10,0 19,-9 19,-19 0,-11 -9,-20 -19,-20z"/>
   <path class="fil1" d="M406 403l-88 0c-7,0 -13,5 -13,12 0,8 6,13 13,13l88 0c7,0 13,-5 13,-13 0,-7 -6,-12 -13,-12z"/>
   <path class="fil1" d="M252 396c-11,0 -20,9 -20,19 0,11 9,20 20,20 10,0 19,-9 19,-20 0,-10 -9,-19 -19,-19z"/>
   <path class="fil1" d="M263 186l109 0c3,0 5,-1 7,-3 1,-2 2,-5 2,-7l-9 -42c-1,-4 -5,-7 -9,-7l-91 0c-4,0 -8,3 -9,7l-9 42c0,2 1,5 2,7 2,2 4,3 7,3z"/>
  </g>
 </g>
</svg>
